<?xml version="1.0" encoding="UTF-8"?><svg xmlns="http://www.w3.org/2000/svg" viewBox="0 0 19.54 19.56"><defs><style>.f{fill:#ebf2fa;}</style></defs><g id="a"/><g id="b"><g id="c"><g><path id="d" class="f" d="M18.15,11.82c.77,0,1.39-.62,1.39-1.39v-1.3c0-.77-.62-1.39-1.39-1.39h-.71c-.18-.67-.45-1.32-.8-1.93l.51-.51c.54-.54,.54-1.42,0-1.97l-.93-.93c-.26-.26-.61-.41-.98-.41-.37,0-.72,.14-.98,.41l-.51,.51c-.6-.35-1.25-.62-1.93-.8v-.72c0-.77-.62-1.39-1.39-1.39h-1.31c-.77,0-1.39,.62-1.39,1.39v.72c-.68,.18-1.32,.45-1.93,.8l-.51-.51c-.26-.26-.61-.41-.98-.41-.37,0-.72,.14-.98,.41l-.93,.93c-.54,.54-.54,1.42,0,1.97l.51,.51c-.35,.6-.62,1.25-.8,1.93h-.72C.62,7.73,0,8.36,0,9.12v1.31c0,.77,.62,1.39,1.39,1.39h.72c.18,.68,.45,1.32,.8,1.93l-.51,.51c-.54,.54-.54,1.42,0,1.97l.93,.93c.26,.26,.61,.41,.98,.41,.37,0,.72-.14,.98-.41l.51-.51c.6,.35,1.25,.62,1.93,.8v.72c0,.77,.62,1.39,1.39,1.39h1.31c.77,0,1.39-.63,1.39-1.39v-.72c.68-.18,1.32-.45,1.93-.8l.51,.51c.26,.26,.61,.41,.98,.41,.37,0,.72-.14,.98-.41l.93-.93c.54-.54,.54-1.42,0-1.97l-.51-.51c.35-.6,.62-1.25,.8-1.93h.71Zm-1.8-.73c-.17,.86-.51,1.69-1,2.42-.16,.24-.13,.56,.07,.77l.85,.85c.07,.06,.07,.17,0,.23h0l-.93,.93s-.07,.05-.11,.05c-.04,0-.08-.02-.11-.05l-.85-.85c-.21-.21-.53-.24-.77-.07-.73,.49-1.55,.83-2.42,1-.29,.06-.49,.31-.49,.6v1.2c0,.09-.07,.16-.16,.16h-1.31c-.09,0-.16-.07-.16-.16v-1.2c0-.29-.21-.54-.49-.6-.86-.17-1.69-.51-2.42-1-.24-.16-.57-.13-.77,.08l-.85,.85s-.07,.05-.11,.05c-.04,0-.08-.02-.11-.05l-.93-.93c-.07-.06-.07-.17,0-.24h0l.85-.85c.21-.2,.24-.53,.08-.77-.49-.73-.83-1.55-1-2.42-.06-.29-.31-.49-.6-.49H1.38c-.09,0-.16-.07-.16-.16v-1.32c0-.09,.07-.16,.16-.16h1.2c.29,0,.54-.21,.6-.49,.17-.86,.51-1.68,1-2.41,.16-.24,.13-.57-.08-.77l-.85-.85s-.05-.07-.05-.11c0-.04,.02-.09,.05-.12l.92-.93s.07-.05,.11-.05c.04,0,.08,.02,.11,.05l.85,.85c.2,.21,.53,.24,.77,.08,.73-.49,1.55-.83,2.42-1,.29-.06,.49-.31,.49-.6V1.39c0-.09,.07-.16,.16-.16h1.31c.09,0,.16,.07,.16,.16v1.2c0,.29,.21,.54,.49,.6,.86,.17,1.69,.51,2.42,1,.24,.16,.56,.13,.77-.07l.85-.85s.07-.05,.11-.05c.04,0,.08,.02,.11,.05l.93,.93c.07,.06,.07,.17,0,.24h0l-.85,.85c-.21,.2-.24,.53-.08,.77,.49,.73,.83,1.55,1,2.42,.06,.29,.31,.49,.6,.49h1.2c.09,0,.16,.07,.16,.16v1.31c0,.09-.07,.16-.16,.16h-1.2c-.29,0-.54,.2-.6,.49"/><path id="e" class="f" d="M9.77,5.84c-2.17,0-3.93,1.76-3.93,3.93,0,2.17,1.76,3.93,3.93,3.93,2.17,0,3.93-1.76,3.93-3.93,0-2.17-1.76-3.93-3.93-3.93m0,6.64c-1.49,0-2.7-1.21-2.7-2.71,0-1.49,1.21-2.7,2.71-2.7,1.49,0,2.7,1.21,2.7,2.7,0,1.49-1.21,2.71-2.7,2.71h0"/></g></g></g></svg>