<?xml version="1.0" encoding="UTF-8"?><svg xmlns="http://www.w3.org/2000/svg" viewBox="0 0 24.23 24.23"><defs><style>.f{fill:#ebf2fa;}</style></defs><g id="a"/><g id="b"><g id="c"><g><path id="d" class="f" d="M22.36,17.28c-.09,.22-.34,.33-.57,.24h0l-1.46-.61c-.26-.11-.56-.02-.71,.21-.66,.98-1.5,1.83-2.49,2.49-.23,.15-.32,.45-.21,.71l.6,1.46c.09,.22-.02,.48-.24,.57h0l-1.59,.67c-.22,.09-.48-.01-.57-.24h0l-.61-1.46c-.1-.26-.38-.41-.65-.35-1.16,.23-2.35,.23-3.51,0-.27-.05-.55,.09-.65,.35l-.61,1.46c-.09,.22-.35,.33-.57,.24l-1.59-.66c-.11-.04-.19-.13-.24-.24-.05-.11-.05-.23,0-.33l.61-1.46c.11-.26,.02-.56-.21-.71-.98-.66-1.83-1.5-2.49-2.49-.15-.23-.45-.32-.71-.21l-1.46,.61c-.22,.09-.47-.01-.57-.23h0l-.66-1.6c-.09-.22,.01-.48,.24-.57h0l1.46-.61c.26-.11,.4-.38,.35-.65-.23-1.16-.23-2.35,0-3.51,.05-.27-.09-.55-.35-.65l-1.46-.61c-.22-.09-.33-.35-.24-.57l.66-1.59c.09-.22,.35-.33,.57-.24l1.46,.61c.26,.11,.56,.02,.71-.21,.66-.99,1.5-1.83,2.49-2.49,.23-.16,.32-.45,.21-.71l-.61-1.46c-.05-.11-.05-.23,0-.34,.04-.11,.13-.19,.24-.24l1.59-.66c.22-.09,.48,.01,.57,.24h0l.61,1.46c.12,.3,.45,.45,.75,.33s.45-.45,.33-.75v-.02l-.62-1.46c-.34-.82-1.28-1.21-2.1-.87l-1.59,.66c-.4,.16-.71,.48-.87,.87-.16,.4-.16,.84,0,1.23l.43,1.03c-.81,.6-1.54,1.32-2.14,2.14l-1.03-.43c-.82-.34-1.77,.05-2.11,.87h0L.12,8.08c-.34,.82,.05,1.77,.87,2.11h0l1.03,.42c-.16,1-.16,2.02,0,3.02l-1.03,.43c-.82,.34-1.21,1.28-.87,2.1l.66,1.57c.34,.82,1.28,1.21,2.1,.87l1.03-.42c.6,.82,1.32,1.54,2.14,2.14l-.42,1.03c-.16,.39-.16,.84,0,1.23,.16,.4,.47,.71,.87,.87l1.59,.66c.82,.34,1.76-.05,2.1-.87l.42-1.03c1,.16,2.02,.16,3.02,0l.43,1.03c.25,.6,.83,.99,1.48,.99,.21,0,.42-.04,.62-.12l1.59-.66c.82-.34,1.21-1.28,.87-2.1l-.43-1.03c.81-.6,1.54-1.32,2.14-2.14l1.03,.43c.82,.34,1.75-.04,2.09-.86h0l.66-1.6c.16-.39,.16-.84,0-1.23-.16-.39-.48-.71-.87-.87l-1.46-.61c-.29-.13-.64,0-.77,.3s0,.64,.3,.77h.02l1.46,.62c.22,.09,.33,.35,.24,.57l-.67,1.59Z"/><path id="e" class="f" d="M12.08,8.11c.32,0,.58-.27,.58-.59,0-.32-.27-.58-.59-.58h0c-2.85,0-5.16,2.33-5.15,5.18,0,2.85,2.33,5.16,5.18,5.15h.04c2.85-.02,5.14-2.34,5.13-5.19h0c0-.33-.27-.59-.59-.59h0c-.32,0-.58,.26-.58,.58h0c.02,2.21-1.75,4.01-3.96,4.03h-.04c-2.21,0-3.99-1.79-3.99-4,0-1.05,.41-2.05,1.15-2.8,.75-.75,1.77-1.18,2.83-1.19"/></g></g></g></svg>