<?xml version="1.0" encoding="UTF-8"?><svg xmlns="http://www.w3.org/2000/svg" viewBox="0 0 32.01 31.72"><defs><style>.h{fill:#ebf2fa;}</style></defs><g id="a"/><g id="b"><g id="c"><g><path id="d" class="h" d="M22.36,24.77c-.09,.22-.34,.33-.57,.24h0l-1.46-.61c-.26-.11-.56-.02-.71,.21-.66,.98-1.5,1.83-2.49,2.49-.23,.15-.32,.45-.21,.71l.6,1.46c.09,.22-.02,.48-.24,.57h0l-1.59,.67c-.22,.09-.48-.01-.57-.24h0l-.61-1.46c-.1-.26-.38-.41-.65-.35-1.16,.23-2.35,.23-3.51,0-.27-.05-.55,.09-.65,.35l-.61,1.46c-.09,.22-.35,.33-.57,.24l-1.59-.66c-.11-.04-.19-.13-.24-.24-.05-.11-.05-.23,0-.33l.61-1.46c.11-.26,.02-.56-.21-.71-.98-.66-1.83-1.5-2.49-2.49-.15-.23-.45-.32-.71-.21l-1.46,.61c-.22,.09-.47-.01-.57-.23h0l-.66-1.6c-.09-.22,.01-.48,.24-.57h0l1.46-.61c.26-.11,.4-.38,.35-.65-.23-1.16-.23-2.35,0-3.51,.05-.27-.09-.55-.35-.65l-1.46-.61c-.22-.09-.33-.35-.24-.57l.66-1.59c.09-.22,.35-.33,.57-.24l1.46,.61c.26,.11,.56,.02,.71-.21,.66-.99,1.5-1.83,2.49-2.49,.23-.16,.32-.45,.21-.71l-.61-1.46c-.05-.11-.05-.23,0-.34,.04-.11,.13-.19,.24-.24l1.59-.66c.22-.09,.48,.01,.57,.24h0l.61,1.46c.12,.3,.45,.45,.75,.33s.45-.45,.33-.75v-.02l-.62-1.46c-.34-.82-1.28-1.21-2.1-.87l-1.59,.66c-.4,.16-.71,.48-.87,.87-.16,.4-.16,.84,0,1.23l.43,1.03c-.81,.6-1.54,1.32-2.14,2.14l-1.03-.43c-.82-.34-1.77,.05-2.11,.87h0L.12,15.57c-.34,.82,.05,1.77,.87,2.11h0l1.03,.42c-.16,1-.16,2.02,0,3.02l-1.03,.43c-.82,.34-1.21,1.28-.87,2.1l.66,1.57c.34,.82,1.28,1.21,2.1,.87l1.03-.42c.6,.82,1.32,1.54,2.14,2.14l-.42,1.03c-.16,.39-.16,.84,0,1.23,.16,.4,.47,.71,.87,.87l1.59,.66c.82,.34,1.76-.05,2.1-.87l.42-1.03c1,.16,2.02,.16,3.02,0l.43,1.03c.25,.6,.83,.99,1.48,.99,.21,0,.42-.04,.62-.12l1.59-.66c.82-.34,1.21-1.28,.87-2.1l-.43-1.03c.81-.6,1.54-1.32,2.14-2.14l1.03,.43c.82,.34,1.75-.04,2.09-.86h0l.66-1.6c.16-.39,.16-.84,0-1.23-.16-.39-.48-.71-.87-.87l-1.46-.61c-.29-.13-.64,0-.77,.3s0,.64,.3,.77h.02l1.46,.62c.22,.09,.33,.35,.24,.57l-.67,1.59Z"/><path id="e" class="h" d="M12.08,15.6c.32,0,.58-.27,.58-.59,0-.32-.27-.58-.59-.58h0c-2.85,0-5.16,2.33-5.15,5.18,0,2.85,2.33,5.16,5.18,5.15h.04c2.85-.02,5.14-2.34,5.13-5.19h0c0-.33-.27-.59-.59-.59h0c-.32,0-.58,.26-.58,.58h0c.02,2.21-1.75,4.01-3.96,4.03h-.04c-2.21,0-3.99-1.79-3.99-4,0-1.05,.41-2.05,1.15-2.8,.75-.75,1.77-1.18,2.83-1.19"/></g><g><path id="f" class="h" d="M30.62,11.82c.77,0,1.39-.62,1.39-1.39v-1.3c0-.77-.62-1.39-1.39-1.39h-.71c-.18-.67-.45-1.32-.8-1.93l.51-.51c.54-.54,.54-1.42,0-1.97l-.93-.93c-.26-.26-.61-.41-.98-.41-.37,0-.72,.14-.98,.41l-.51,.51c-.6-.35-1.25-.62-1.93-.8v-.72c0-.77-.62-1.39-1.39-1.39h-1.31c-.77,0-1.39,.62-1.39,1.39v.72c-.68,.18-1.32,.45-1.93,.8l-.51-.51c-.26-.26-.61-.41-.98-.41-.37,0-.72,.14-.98,.41l-.93,.93c-.54,.54-.54,1.42,0,1.97l.51,.51c-.35,.6-.62,1.25-.8,1.93h-.72c-.77,0-1.39,.63-1.39,1.39v1.31c0,.77,.62,1.39,1.39,1.39h.72c.18,.68,.45,1.32,.8,1.93l-.51,.51c-.54,.54-.54,1.42,0,1.97l.93,.93c.26,.26,.61,.41,.98,.41,.37,0,.72-.14,.98-.41l.51-.51c.6,.35,1.25,.62,1.93,.8v.72c0,.77,.62,1.39,1.39,1.39h1.31c.77,0,1.39-.63,1.39-1.39v-.72c.68-.18,1.32-.45,1.93-.8l.51,.51c.26,.26,.61,.41,.98,.41,.37,0,.72-.14,.98-.41l.93-.93c.54-.54,.54-1.42,0-1.97l-.51-.51c.35-.6,.62-1.25,.8-1.93h.71Zm-1.8-.73c-.17,.86-.51,1.69-1,2.42-.16,.24-.13,.56,.07,.77l.85,.85c.07,.06,.07,.17,0,.23h0l-.93,.93s-.07,.05-.11,.05c-.04,0-.08-.02-.11-.05l-.85-.85c-.21-.21-.53-.24-.77-.07-.73,.49-1.55,.83-2.42,1-.29,.06-.49,.31-.49,.6v1.2c0,.09-.07,.16-.16,.16h-1.31c-.09,0-.16-.07-.16-.16v-1.2c0-.29-.21-.54-.49-.6-.86-.17-1.69-.51-2.42-1-.24-.16-.57-.13-.77,.08l-.85,.85s-.07,.05-.11,.05c-.04,0-.08-.02-.11-.05l-.93-.93c-.07-.06-.07-.17,0-.24h0l.85-.85c.21-.2,.24-.53,.08-.77-.49-.73-.83-1.55-1-2.42-.06-.29-.31-.49-.6-.49h-1.2c-.09,0-.16-.07-.16-.16v-1.32c0-.09,.07-.16,.16-.16h1.2c.29,0,.54-.21,.6-.49,.17-.86,.51-1.68,1-2.41,.16-.24,.13-.57-.08-.77l-.85-.85s-.05-.07-.05-.11c0-.04,.02-.09,.05-.12l.92-.93s.07-.05,.11-.05c.04,0,.08,.02,.11,.05l.85,.85c.2,.21,.53,.24,.77,.08,.73-.49,1.55-.83,2.42-1,.29-.06,.49-.31,.49-.6V1.39c0-.09,.07-.16,.16-.16h1.31c.09,0,.16,.07,.16,.16v1.2c0,.29,.21,.54,.49,.6,.86,.17,1.69,.51,2.42,1,.24,.16,.56,.13,.77-.07l.85-.85s.07-.05,.11-.05c.04,0,.08,.02,.11,.05l.93,.93c.07,.06,.07,.17,0,.24h0l-.85,.85c-.21,.2-.24,.53-.08,.77,.49,.73,.83,1.55,1,2.42,.06,.29,.31,.49,.6,.49h1.2c.09,0,.16,.07,.16,.16v1.31c0,.09-.07,.16-.16,.16h-1.2c-.29,0-.54,.2-.6,.49"/><path id="g" class="h" d="M22.23,5.84c-2.17,0-3.93,1.76-3.93,3.93,0,2.17,1.76,3.93,3.93,3.93,2.17,0,3.93-1.76,3.93-3.93,0-2.17-1.76-3.93-3.93-3.93m0,6.64c-1.49,0-2.7-1.21-2.7-2.71,0-1.49,1.21-2.7,2.71-2.7,1.49,0,2.7,1.21,2.7,2.7,0,1.49-1.21,2.71-2.7,2.71h0"/></g></g></g></svg>